PathFileType	4	(X/Y/Z)	Patient4_TMGait_0pt7_02_right_19.trc.trc
DataRate	CameraRate	NumFrames	NumMarkers	Units	OrigDataRate	OrigDataStartFrame	OrigNumFrames
86.419753086420	86.419753086420	5	33	mm	86.419753086420	1	       141
Frame#	Time	Sacral			L.Shoulder			Chest			R.Shoulder			Neck			R.ASIS			L.ASIS			R.Thigh.Superior			R.Thigh.Lateral			R.Thigh.Inferior			R.Patella			L.Thigh.Superior			L.Thigh.Lateral			L.Thigh.Inferior			L.Patella			L.Shank.Superior			L.Shank.Lateral			L.Shank.Inferior			R.Shank.Superior			R.Shank.Lateral			R.Shank.Inferior			R.Heel			R.Midfoot.Superior			R.Midfoot.Lateral			R.Toe			L.Heel			L.Midfoot.Lateral			L.Midfoot.Superior			L.Toe			L.Elbow			L.Wrist			R.Elbow			R.Wrist			
		X1	Y1	Z1	X2	Y2	Z2	X3	Y3	Z3	X4	Y4	Z4	X5	Y5	Z5	X6	Y6	Z6	X7	Y7	Z7	X8	Y8	Z8	X9	Y9	Z9	X10	Y10	Z10	X11	Y11	Z11	X12	Y12	Z12	X13	Y13	Z13	X14	Y14	Z14	X15	Y15	Z15	X16	Y16	Z16	X17	Y17	Z17	X18	Y18	Z18	X19	Y19	Z19	X20	Y20	Z20	X21	Y21	Z21	X22	Y22	Z22	X23	Y23	Z23	X24	Y24	Z24	X25	Y25	Z25	X26	Y26	Z26	X27	Y27	Z27	X28	Y28	Z28	X29	Y29	Z29	X30	Y30	Z30	X31	Y31	Z31	X32	Y32	Z32	X33	Y33	Z33	

1	20.940000000000	802.889176100234	1011.983860859252	401.348738190581	1003.735614473704	1425.728088905006	217.012116943550	1094.521896596801	1359.229490299521	387.301786002217	1004.071056749936	1445.442278606666	552.312168769092	1000.405076899709	1494.608107728127	369.555880341049	1016.867691197506	945.289905358653	535.896796441140	1027.157687537743	960.204369795495	261.400116943754	1102.106576651236	777.752311381645	519.603522598707	1055.152060785489	656.900572467024	592.513302786109	1154.819065727818	618.052131345285	525.527852714905	1171.054574669693	503.779738771633	550.908765828653	1068.578624513744	749.149555168448	291.851614368683	978.528702470436	636.347636359447	230.908387950767	1057.044381682482	555.680149105801	298.517284838812	1054.476851879234	486.256656293937	309.870543576751	1024.221143234128	415.094312646805	300.979842882910	932.778723296332	304.415166868826	244.148831347515	972.214180428802	192.560904860536	321.936775001133	1092.950717072886	429.882907360739	549.489830566902	963.947224143614	394.417146602612	594.789168645555	953.163216890461	284.972775911889	546.214718327971	755.903278108560	228.129689133335	493.850015534139	916.644129396636	165.549584249913	557.104382184066	803.932935825813	169.811541271324	576.130294940210	973.370248444064	52.469672802945	594.637722334363	835.910088197982	39.076510722285	355.424316847283	916.517011798934	35.021776141112	280.873368323412	997.039899036693	96.162810318068	314.133618764058	1127.522288532264	44.640109342074	297.656245994397	988.312143645774	1082.769660847116	80.708799815281	1113.770300667815	852.396855616877	90.469578799882	975.630206117528	1102.573053160614	683.925447585572	1170.573673177810	931.243427203647	649.601137228194	
2	20.951571428571	801.314929471636	1011.929907410059	399.965241499177	1004.230301320452	1425.621097350968	216.643029763146	1093.668264974224	1359.057958719944	387.587470044789	1002.238735020542	1445.287419145419	551.989698509934	999.934908999048	1494.476176030566	369.094730812611	1015.402724091668	945.368074685694	535.140398631388	1026.150106092540	960.576363318678	260.559607484537	1102.858685255039	780.993695645893	518.830981663730	1058.706214174403	659.622944402967	592.301644502906	1158.656071059521	622.488085641870	524.816939116997	1177.684690603704	509.231738888152	550.463299962428	1064.834613446127	748.314345246421	291.339941627340	973.098740888879	636.497492342512	229.849942401443	1049.793086656832	554.854926982121	297.662068575232	1046.077079736895	485.696998038148	309.069113172253	1016.079940140606	414.916547808737	300.088073322257	924.459593661994	304.289923147020	243.434403730412	963.660771592812	192.537454378014	321.594374764788	1102.383492457502	433.146289676722	549.400063671594	975.612981961050	392.505214715356	595.576271691681	968.845351504405	282.940948060665	547.021812281984	773.968635212536	218.264169864656	496.544085076365	937.507682924444	162.362028536203	558.136367857356	825.048012500840	161.679938364410	577.833418438165	998.929406288918	51.497015136931	594.222881849560	827.307717431501	39.078798711211	355.402397771285	907.935479739122	34.994087390818	280.852204984661	988.448649034642	96.109714234899	314.036516796285	1118.942976336783	44.616700189923	297.625580838948	997.623756065211	1084.209357202545	77.975281561514	1132.969465633073	860.284046516797	88.961201126269	966.695859510389	1103.535673359590	684.837088484456	1141.585132583945	915.499261118408	661.007499705382	
3	20.963142857143	799.784655345100	1011.861848473397	398.635470781387	1004.726405074740	1425.506003392019	216.314299678271	1092.850508895723	1358.860333879449	387.887791562873	1000.468768953475	1445.093099307068	551.694634920378	999.490443299928	1494.322810089111	368.682460473297	1013.950168198238	945.418320469526	534.414123137200	1025.166648326666	960.912813008538	259.755052944025	1103.545107188445	784.139663777250	518.032794204913	1062.152531916699	662.268072472925	592.057944022928	1162.342032755948	626.806501606802	524.059462182093	1184.134179829211	514.583887285622	549.970646832418	1061.115829910981	747.457639025166	290.885793187412	967.726695466537	636.644382789537	228.824351452385	1042.594341899947	554.034889911716	296.845788804874	1037.741845741569	485.152057813677	308.304360751060	1008.009796438877	414.744996058422	299.230162546314	916.235484410281	304.162480368941	242.737132241929	955.207592623833	192.515316506363	321.267543668126	1111.631590363728	436.335090381678	549.301349086899	987.136851587945	390.548939199960	596.386155768712	984.403970096422	280.862291434210	547.875353056924	791.969820401466	208.323870590599	499.288323033467	958.253514936553	159.161438006557	559.254933936150	846.083243981859	153.565893390671	579.643450266695	1024.372316608227	50.600983180939	594.009409306640	818.812887565219	39.079460833241	355.377121630969	899.457157026139	34.965735987757	280.832169081300	979.960498518585	96.059302373180	313.944620432657	1110.466980831468	44.596480599236	297.596625189900	1006.750108535714	1085.661506068729	75.327893501679	1151.887117456359	868.204821971960	87.558182609336	957.884077029162	1104.459156621002	685.715129040032	1112.772040384329	900.447890190940	672.176010612962	
4	20.974714285714	798.341331049807	1011.757783961936	397.417666489823	1005.235580784668	1425.360940818990	216.076446230358	1092.110512604985	1358.597274774371	388.229624035466	998.830583653637	1444.812594903066	551.465950859197	999.107806149926	1494.113273478445	368.375343947405	1012.527749247673	945.394408134231	533.756948189099	1024.228430853370	961.174794430383	259.026727833639	1104.085040018153	787.061125773506	517.193415213798	1065.354746844611	664.722373762302	591.761733597993	1165.702554041133	630.848859256560	523.224140888839	1190.201706735027	519.719926252479	549.392030556890	1057.416479196604	746.549425955980	290.530672805541	962.417540242937	636.785358341246	227.857951172200	1035.445610749875	553.217519557850	296.092690858312	1029.478695763580	484.627591738751	307.595021131941	1000.014764358350	414.584194585786	298.426393971370	908.120057254015	304.035163304607	242.068407308766	946.872281964567	192.496246925761	320.963687042881	1120.536169959039	439.367057481281	549.188312562468	998.469517915134	388.457566776486	597.252591020267	999.858348234188	278.683761719547	548.824344993253	810.103646267043	198.158939845654	502.139975109486	978.975877755895	155.955749760560	560.538881166380	867.219630331629	145.455359208214	581.665703703610	1049.819334723357	49.956632176319	594.177644587129	810.442988321833	39.080023717753	355.346248621940	891.096484077444	34.936331104514	280.814180125476	971.590873357931	96.012952027424	313.860735510997	1102.108852100308	44.580560895630	297.570896158568	1015.554292838698	1087.136476444373	72.852041794034	1170.345049203605	876.339202171930	86.387418692274	949.202482156377	1105.367132917628	686.549945422537	1084.158854376594	886.786784492660	682.880987286062	
5	20.986285714286	797.022544000051	1011.598309273338	396.359500425215	1005.769937540113	1425.164657002796	215.973172032018	1091.484597469059	1358.233937456880	388.638183161723	997.385464369165	1444.407915332014	551.340804784547	998.819795088013	1493.816697984508	368.221137110944	1011.152091989345	945.253938857303	533.204232240167	1023.352571207549	961.329875632645	258.410457342242	1104.408979242073	789.642736086990	516.305793250549	1068.191865508371	666.880391840411	591.400474897708	1168.589435003860	634.471203829816	522.293648858428	1195.712843429159	524.535612167641	548.702079817431	1053.732130263314	745.565653620851	290.298165402592	957.159962456241	636.918554564090	226.968976559398	1028.333569222877	552.398968739844	295.415067318081	1021.285243425205	484.127445204593	306.945726749375	992.082956693408	414.438198648628	297.687119598363	900.102985345651	303.912028900673	241.434692983038	938.648273478592	192.482472645681	320.685210575059	1128.972462815390	442.171310074861	549.059492499737	1009.592577656460	386.147688513078	598.203511320990	1015.256728557178	276.367722832041	549.907924509979	828.601418544188	187.643616430616	505.141385311082	999.798754129100	152.765286575142	562.042863201539	888.666918667584	137.342915139962	583.979154862457	1075.415704689021	49.741412200309	594.859917472443	802.189140660668	39.082625902972	355.307521019160	882.842304443846	34.905773571664	280.798834986624	963.329488971906	95.970777715927	313.786353983802	1093.857143628074	44.568523140839	297.549648497309	1023.934817939172	1088.638962153049	70.616245673022	1188.219749627967	884.871625496883	85.553774588712	940.616646703430	1106.301322106753	687.342540886584	1055.769884857680	875.080357689249	692.927456279015	
